<?xml version="1.0" standalone="no"?><!DOCTYPE svg PUBLIC "-//W3C//DTD SVG 1.1//EN" "http://www.w3.org/Graphics/SVG/1.1/DTD/svg11.dtd"><svg class="icon" width="200px" height="200.00px" viewBox="0 0 1024 1024" version="1.1" xmlns="http://www.w3.org/2000/svg"><path fill="#515151" d="M837.271 466.039c-25.649 0-46.403 20.778-46.403 46.403v278.427h-556.851v-278.427c0-25.627-20.753-46.403-46.403-46.403-25.648 0-46.404 20.777-46.404 46.403v324.829c0 25.627 20.754 46.403 46.404 46.403h649.658c25.652 0 46.403-20.776 46.403-46.403v-324.829c0-25.627-20.751-46.403-46.403-46.403zM558.848 466.039v-284.094c0-22.497-20.754-40.735-46.404-40.735-25.649 0-46.403 18.239-46.403 40.735v284.094h-139.213l185.617 185.616 185.618-185.616h-139.211z" /></svg>