<?xml version="1.0" standalone="no"?><!DOCTYPE svg PUBLIC "-//W3C//DTD SVG 1.1//EN" "http://www.w3.org/Graphics/SVG/1.1/DTD/svg11.dtd"><svg t="1495874673908" class="icon" style="" viewBox="0 0 1024 1024" version="1.1" xmlns="http://www.w3.org/2000/svg" p-id="6445" xmlns:xlink="http://www.w3.org/1999/xlink" width="200" height="200"><defs><style type="text/css"></style></defs><path d="M939.4 260.6 939.4 260.6c-7.6-18.3-16.7-32.8-27.4-43.4L733.7 38.9c-10.7-10.7-25.2-19.8-43.4-27.4C672 3.8 655.2 0 640 0L146.3 0c-40.4 0-73.1 32.7-73.1 73.1l0 877.7c0 40.4 32.7 73.1 73.1 73.1l731.4 0c40.4 0 73.1-32.7 73.1-73.1l0-640C950.8 295.6 947 278.9 939.4 260.6zM681.7 90.2l178.9 178.9c4.6 4.6 8.8 12.4 12.6 23.4L658.3 292.5l0-214.9C669.3 81.5 677.1 85.7 681.7 90.2zM877.7 950.8 146.3 950.8 146.3 73.1l438.9 0 0 237.7c0 15.2 5.4 28.2 16 38.8 10.7 10.7 23.6 16 38.8 16l237.7 0L877.7 950.8z" p-id="6446" fill="#7dc5eb"></path></svg>