<?xml version="1.0" standalone="no"?><!DOCTYPE svg PUBLIC "-//W3C//DTD SVG 1.1//EN" "http://www.w3.org/Graphics/SVG/1.1/DTD/svg11.dtd"><svg class="icon" width="200px" height="200.00px" viewBox="0 0 1024 1024" version="1.1" xmlns="http://www.w3.org/2000/svg"><path fill="#515151" d="M873.552499 416.832524c0 16.956184-13.746072 30.702256-30.702256 30.702256L182.173063 447.534779c-16.956184 0-30.702256-13.746072-30.702256-30.702256l0 0c0-16.956184 13.746072-30.702256 30.702256-30.702256L842.850244 386.130268C859.806427 386.130268 873.552499 399.87634 873.552499 416.832524L873.552499 416.832524zM512.084934 767.848039c-16.956184 0-30.702256-13.746072-30.702256-30.702256L481.382679 542.739095c0-16.956184 13.746072-30.702256 30.702256-30.702256l0 0c16.956184 0 30.702256 13.746072 30.702256 30.702256l0 194.406688C542.78719 754.101967 529.041118 767.848039 512.084934 767.848039L512.084934 767.848039zM640.928395 639.430274c0 16.956184-13.746072 30.702256-30.702256 30.702256L412.749532 670.13253c-16.956184 0-30.702256-13.746072-30.702256-30.702256l0 0c0-16.956184 13.746072-30.702256 30.702256-30.702256l197.476607 0C627.183346 608.729042 640.928395 622.474091 640.928395 639.430274L640.928395 639.430274zM753.837954 897.421116 267.773649 897.421116c-77.816297 0-141.125181-63.307861-141.125181-141.125181L126.648468 268.364097c0-77.816297 63.308885-141.125181 141.125181-141.125181l115.629507 0c10.370185 0 20.040429 5.236258 25.708522 13.921058l54.360072 83.293031 290.36518 0c77.816297 0 141.125181 63.308885 141.125181 141.125181l0 390.716726C894.963135 834.112232 831.65425 897.421116 753.837954 897.421116zM267.773649 188.637288c-43.961234 0-79.726809 35.765575-79.726809 79.726809l0 487.930815c0 43.961234 35.765575 79.726809 79.726809 79.726809l486.064304 0c43.961234 0 79.726809-35.765575 79.726809-79.726809L833.564763 365.578186c0-43.961234-35.765575-79.726809-79.726809-79.726809L446.849164 285.851377c-10.370185 0-20.040429-5.236258-25.708522-13.921058l-54.360072-83.293031L267.773649 188.637288z" /></svg>