<?xml version="1.0" standalone="no"?><!DOCTYPE svg PUBLIC "-//W3C//DTD SVG 1.1//EN" "http://www.w3.org/Graphics/SVG/1.1/DTD/svg11.dtd"><svg class="icon" width="200px" height="200.00px" viewBox="0 0 1024 1024" version="1.1" xmlns="http://www.w3.org/2000/svg"><path fill="#515151" d="M765.187955 298.826899c-6.760984-6.871501-17.557888-6.871501-24.319896 0L489.70267 570.605769 343.563288 420.646386c-6.817266-6.953366-17.886369-6.953366-24.6494 0l-49.184189 50.496067c-6.817266 6.978948-6.817266 18.268062 0 25.247011l207.049637 212.395388c1.690502 1.744737 3.76372 3.107781 5.944385 4.007267 6.707772 3.681856 15.049764 2.426259 20.283976-3.053546l46.732347-50.547233 0.873904-0.873903c0.381693-0.409322 0.709151-0.791016 1.090844-1.226944l262.016529-283.557125c6.705726-6.871501 6.705726-18.021445 0-24.892946l-48.533366-49.813523zM812.084031 64.839751h-601.028663c-80.595596 0-146.19464 65.571415-146.19464 146.16701v601.029686c0 80.623225 65.599044 146.223293 146.19464 146.223293h601.028663c80.595596 0 146.19464-65.599044 146.19464-146.223293V211.005738c0-80.594573-65.599044-146.165987-146.19464-146.165987z m94.228081 747.195673c0 51.966559-42.261523 94.255711-94.228081 94.255711h-601.028663c-51.966559 0-94.228081-42.289152-94.228081-94.255711V211.005738c0-51.940976 42.261523-94.228081 94.228081-94.228081h601.028663c51.966559 0 94.228081 42.287105 94.228081 94.228081v601.029686z" /></svg>