<?xml version="1.0" standalone="no"?><!DOCTYPE svg PUBLIC "-//W3C//DTD SVG 1.1//EN" "http://www.w3.org/Graphics/SVG/1.1/DTD/svg11.dtd"><svg t="1495963512442" class="icon" style="" viewBox="0 0 1534 1024" version="1.1" xmlns="http://www.w3.org/2000/svg" p-id="4139" xmlns:xlink="http://www.w3.org/1999/xlink" width="299.609375" height="200"><defs><style type="text/css"></style></defs><path d="M996.891022 458.944a31.708444 31.708444 0 0 0-22.495289-9.319822 31.709867 31.709867 0 0 0-22.496711 9.319822L727.067022 682.88l-101.056-100.736a31.8336 31.8336 0 0 0-22.528-9.299911 31.835022 31.835022 0 0 0-22.529422 9.301333l-14.974578 14.910578a31.580444 31.580444 0 0 0-9.309866 22.432711c0 8.763733 3.5584 16.696889 9.309866 22.431289l134.976 134.464c10.24 10.24 25.6 11.52 37.632 4.864a30.700089 30.700089 0 0 0 19.332267-9.555911L1011.8656 518.784a31.900444 31.900444 0 0 0 9.210311-22.465422 31.891911 31.891911 0 0 0-9.152-22.404267l-15.032889-14.970311z m80.257422-247.808h-90.688l-1.409422-95.552C984.905956 51.717689 933.098667 0 869.212444 0h-584.192C221.147022 0 169.352533 51.7248 169.244444 115.574044v581.705956c0.109511 63.894756 51.931022 115.648 115.84 115.648h92.352v95.488c0.145067 63.867733 51.952356 115.585422 115.84 115.585422H1077.404444c63.908978 0 115.731911-51.754667 115.841423-115.638044V326.785422c-0.109511-63.893333-51.931022-115.648-115.841423-115.648h-0.2688l0.0128-0.001422zM377.436444 326.784v408.384H316.764444c-38.341689 0-69.431467-31.045689-69.505422-69.367467V147.072c0-38.270578 31.169422-69.376 69.632-69.376H837.532444c38.4 0 69.568 31.105422 69.568 69.376l1.6 64.064H493.275022c-63.908978 0-115.730489 51.754667-115.84 115.638044l0.001422 0.009956zM1117.084444 880.512c-0.036978 35.670756-28.963556 64.574578-64.641422 64.574578h-533.632c-35.690667 0-64.631467-28.895289-64.704-64.568889V354.558578c0.035556-35.670756 28.962133-64.576 64.638578-64.576h533.696c35.676444 0 64.603022 28.903822 64.64 64.573155v525.954845l0.002844 0.001422z" fill="#515151" p-id="4140"></path></svg>