<?xml version="1.0" standalone="no"?><!DOCTYPE svg PUBLIC "-//W3C//DTD SVG 1.1//EN" "http://www.w3.org/Graphics/SVG/1.1/DTD/svg11.dtd"><svg class="icon" width="200px" height="200.00px" viewBox="0 0 1024 1024" version="1.1" xmlns="http://www.w3.org/2000/svg"><path fill="#515151" d="M113.777778 795.875556C113.777778 859.477333 164.693333 910.222222 228.124444 910.222222h567.751112c63.544889 0 114.346667-50.915556 114.346666-114.346666V228.124444C910.222222 164.522667 859.306667 113.777778 795.875556 113.777778H228.124444C164.522667 113.777778 113.777778 164.693333 113.777778 228.124444v567.751112zM228.124444 56.888889h567.751112A170.837333 170.837333 0 0 1 967.111111 228.124444v567.751112A170.837333 170.837333 0 0 1 795.875556 967.111111H228.124444A170.837333 170.837333 0 0 1 56.888889 795.875556V228.124444A170.837333 170.837333 0 0 1 228.124444 56.888889z" /></svg>